<?xml version="1.0" encoding="utf-8"?>
<!-- Generator: Adobe Illustrator 27.3.1, SVG Export Plug-In . SVG Version: 6.00 Build 0)  -->
<svg version="1.1" id="Layer_1" xmlns="http://www.w3.org/2000/svg" xmlns:xlink="http://www.w3.org/1999/xlink" x="0px" y="0px"
	 viewBox="0 0 595.3 149.9" style="enable-background:new 0 0 595.3 149.9;" xml:space="preserve">
<style type="text/css">
	.st0{fill:#8DC63F;}
	.st1{fill:#00ACCD;}
	.st2{fill:#FFFFFF;}
	.st3{font-family:'Rajdhani-SemiBold';}
	.st4{font-size:123.4157px;}
</style>
<g>
	<g>
		<path class="st0" d="M147.8,9.8l-6,10l-0.5,0.8l-7.8,13h0c-12.1,0-24.2,0-36.3,0c-1.6,0-3.2,0-4.9,0.2c-1.9,0.2-3.9,0.3-5.8,0.8
			c-2.1,0.6-4,1.5-5.9,3.3c-1.3,1.2-2.4,2.9-3.4,4.5c-1,1.4-1.9,3-2.8,4.5c-4.7,7.9-9.4,15.5-14.1,23.4c-0.3,0.4-0.5,0.6-0.8,0.6
			c-7,0-14,0-20.9,0c-0.1,0-0.2,0-0.3,0c0-0.1,0-0.1,0-0.2c0-0.2,0.1-0.3,0.2-0.4c5.6-9.2,11.1-18.5,16.7-27.7
			C58.1,37.7,61,32.8,64,28c0.2-0.4,0.4-0.7,0.7-1.1c1.5-2.3,3-4.5,4.6-6.5c2.7-3.4,5.7-6,9-7.6c1.7-0.8,3.4-1.4,5.1-1.8
			c1.4-0.3,2.9-0.5,4.3-0.8c0.2,0,0.4,0,0.5,0c1,0,2.1-0.2,3.1-0.3c3.1-0.2,6.1-0.2,9.2-0.2L147.8,9.8z"/>
		<path class="st1" d="M139,59.7L139,59.7l-27.1,45c-1.2,1.9-2.5,3.6-3.8,5.3c-2.7,3.4-5.7,6-9,7.6c-1.7,0.8-3.4,1.3-5.1,1.8
			c-1.4,0.3-2.9,0.5-4.3,0.8c-0.2,0-0.3,0-0.5,0c-1,0-2.1,0.2-3.1,0.3c-3.1,0.2-6.1,0.2-9.2,0.2l-47.4,0l14.3-23.7
			c12.1,0,24.3,0,36.4,0c1.6,0,3.2,0,4.9-0.2c1.9-0.2,3.9-0.3,5.8-0.8c2.1-0.6,4-1.5,5.9-3.3c1.3-1.2,2.4-2.9,3.4-4.5
			c1-1.4,1.9-3,2.8-4.5c4.7-7.9,9.4-15.6,14.1-23.4c0.2-0.4,0.5-0.6,0.9-0.6c7,0,13.9,0,20.9,0C138.9,59.7,139,59.7,139,59.7z"/>
	</g>
	<text transform="matrix(1 0 0 1 158.5712 105.0278)" class="st2 st3 st4">Soppiya</text>
</g>
</svg>
